<svg fill="none" viewBox="0 0 200 200" xmlns="http://www.w3.org/2000/svg"><g fill="#141414"><path d="m162.973 137.142c6.522-10.988 10.266-23.818 10.266-37.5223 0-40.659-32.96-73.6197-73.6193-73.6197-40.659 0-73.6197 32.9607-73.6197 73.6197 0 13.7043 3.7446 26.5343 10.2665 37.5223.7067 1.191 2.3832 1.257 3.2229.156l10.7069-14.038c.4511-.592.5338-1.383.2347-2.065-2.9005-6.603-4.5104-13.901-4.5104-21.5753 0-29.6572 24.0419-53.6991 53.6991-53.6991 29.6573 0 53.6993 24.0419 53.6993 53.6991 0 7.6743-1.61 14.9733-4.511 21.5763-.299.681-.216 1.472.235 2.064l10.707 14.038c.84 1.101 2.516 1.035 3.223-.156z"/><path d="m140.13 134.98a.0607.0607 0 0 0 -.093-.004.0588.0588 0 0 1 -.093-.005l-33.761-48.4504c-3.183-4.5686-9.9438-4.5686-13.1271 0l-33.7604 48.4504a.0593.0593 0 0 1 -.0935.005.0593.0593 0 0 0 -.0929.004l-10.9408 14.919c-.5803.792-.5028 1.889.2016 2.573 13.254 12.854 31.3278 20.767 51.2498 20.767 19.9223 0 37.9953-7.913 51.2493-20.767.705-.683.782-1.781.202-2.572z"/></g></svg>